<?xml version="1.0" encoding="UTF-8" standalone="no"?>
<!-- Created with Inkscape (http://www.inkscape.org/) -->

<svg
   width="199.11517mm"
   height="93.032829mm"
   viewBox="0 0 199.11517 93.03283"
   version="1.1"
   id="svg1"
   xmlns="http://www.w3.org/2000/svg"
   xmlns:svg="http://www.w3.org/2000/svg">
  <defs
     id="defs1" />
  <g
     id="layer1"
     transform="translate(-13.052684,-80.997229)">
    <path
       style="fill:#ffffff;fill-opacity:1;stroke:none;stroke-width:0.5;stroke-linejoin:round;stroke-dasharray:none;stroke-opacity:1"
       d="m 46.009493,172.53989 c 7.79576,1.41741 15.185024,1.88137 31.715353,-0.0128 16.530329,-1.89418 42.200174,-6.14624 65.194194,-10.6348 22.99401,-4.48856 43.30942,-9.21307 54.57018,-14.25286 11.26077,-5.03978 13.46559,-10.39433 14.17429,-18.0327 0.70869,-7.63837 -0.0787,-17.55985 -2.20488,-25.90699 -2.12616,-8.347138 -5.59087,-15.119075 -12.2842,-18.662602 -6.69333,-3.543526 -16.61501,-3.858501 -32.83681,-3.779754 -16.2218,0.07875 -38.74198,0.551198 -60.23981,0.551198 -21.497823,0 -41.970713,-0.472451 -55.751371,2.992399 -13.780658,3.464851 -20.867424,10.866584 -25.434731,17.796289 -4.567307,6.92971 -6.614594,13.38654 -8.032033,20.94621 -1.417438,7.55968 -2.204873,16.22146 -0.944918,23.54481 1.259955,7.32335 4.567179,13.30785 10.322034,17.48562 5.754856,4.17776 13.956942,6.54858 21.752702,7.96599 z"
       id="path5" />
    <g
       id="g3"
       transform="translate(1.0583333,2.6458334)">
      <path
         style="fill:none;stroke:#000000;stroke-width:2;stroke-dasharray:none;stroke-opacity:1"
         d="m 86.275062,122.66838 c 0,-2.54499 0,-5.08997 0.805931,-7.21081 0.80593,-2.12085 2.417721,-3.81747 4.029547,-5.51413"
         id="path2-6"
         transform="rotate(-107.03769,80.974528,149.11896)" />
      <path
         style="fill:none;fill-opacity:1;stroke:#000000;stroke-width:2;stroke-dasharray:none;stroke-opacity:1"
         d="m 86.275062,122.66838 c 0,-2.54499 0,-5.08997 0.805931,-7.21081 0.80593,-2.12085 2.417721,-3.81747 4.029547,-5.51413"
         id="path2"
         transform="translate(-57.210538,0.50899743)" />
      <path
         style="fill:#005645;fill-opacity:1;stroke-width:0.264583"
         d="m 87.886885,150.70565 c -2.120828,-3.01158 -4.41131,-7.50771 -5.471719,-12.13115 -1.060409,-4.62344 -0.890747,-9.37399 0.381771,-12.42799 1.272517,-3.05399 3.64779,-4.41129 6.489726,-4.32644 2.841936,0.0848 6.150355,1.61181 8.992278,4.53858 2.841919,2.92678 5.217149,7.25308 6.192749,12.72492 0.9756,5.47184 0.55145,12.08854 -1.44216,15.22742 -1.99361,3.13887 -5.556448,2.79955 -8.313575,1.86637 -2.757127,-0.93318 -4.708242,-2.46014 -6.82907,-5.47171 z"
         id="path1-11"
         transform="translate(-60.854725,-2.5008839)" />
      <path
         style="fill:#00aa88;stroke-width:0.264583"
         d="m 87.886885,150.70565 c -2.120828,-3.01158 -4.41131,-7.50771 -5.471719,-12.13115 -1.060409,-4.62344 -0.890747,-9.37399 0.381771,-12.42799 1.272517,-3.05399 3.64779,-4.41129 6.489726,-4.32644 2.841936,0.0848 6.150355,1.61181 8.992278,4.53858 2.841919,2.92678 5.217149,7.25308 6.192749,12.72492 0.9756,5.47184 0.55145,12.08854 -1.44216,15.22742 -1.99361,3.13887 -5.556448,2.79955 -8.313575,1.86637 -2.757127,-0.93318 -4.708242,-2.46014 -6.82907,-5.47171 z"
         id="path1"
         transform="translate(-59.755526,-2.5449871)" />
      <path
         style="fill:#987900;fill-opacity:1;stroke-width:0.264583"
         d="m 90.347044,148.2455 c -2.375323,-2.41774 -5.768639,-5.98072 -7.380463,-10.13758 -1.611824,-4.15686 -1.442162,-8.90741 -0.169644,-11.96141 1.272517,-3.05399 3.64779,-4.41129 6.489726,-4.32644 2.841936,0.0848 6.150355,1.61181 8.65294,4.75067 2.502587,3.13886 4.199207,7.88941 4.962707,12.59769 0.76349,4.70827 0.59383,9.37399 -0.80593,11.70689 -1.39977,2.3329 -4.029542,2.3329 -6.02313,1.69664 -1.993588,-0.63626 -3.350883,-1.90872 -5.726206,-4.32646 z"
         id="path1-1-8"
         transform="rotate(-110.26671,54.736376,136.15881)" />
      <path
         style="fill:#ffcc00;stroke-width:0.264583"
         d="m 90.347044,148.2455 c -2.375323,-2.41774 -5.768639,-5.98072 -7.380463,-10.13758 -1.611824,-4.15686 -1.442162,-8.90741 -0.169644,-11.96141 1.272517,-3.05399 3.64779,-4.41129 6.489726,-4.32644 2.841936,0.0848 6.150355,1.61181 8.65294,4.75067 2.502587,3.13886 4.199207,7.88941 4.962707,12.59769 0.76349,4.70827 0.59383,9.37399 -0.80593,11.70689 -1.39977,2.3329 -4.029542,2.3329 -6.02313,1.69664 -1.993588,-0.63626 -3.350883,-1.90872 -5.726206,-4.32646 z"
         id="path1-1"
         transform="rotate(-110.26671,55.761806,135.7556)" />
      <path
         style="fill:#9c7d00;fill-opacity:1;stroke-width:0.264583"
         d="m 90.347044,148.2455 c -2.375323,-2.41774 -5.768639,-5.98072 -7.380463,-10.13758 -1.611824,-4.15686 -1.442162,-8.90741 -0.169644,-11.96141 1.272517,-3.05399 3.64779,-4.41129 6.489726,-4.32644 2.841936,0.0848 6.150355,1.61181 8.65294,4.75067 2.502587,3.13886 4.199207,7.88941 4.962707,12.59769 0.76349,4.70827 0.59383,9.37399 -0.80593,11.70689 -1.39977,2.3329 -4.029542,2.3329 -6.02313,1.69664 -1.993588,-0.63626 -3.350883,-1.90872 -5.726206,-4.32646 z"
         id="path1-14-4"
         transform="matrix(0.52653265,0.85015491,0.85015491,-0.52653265,-99.725643,145.6862)" />
      <path
         style="fill:#ffcc00;stroke-width:0.264583"
         d="m 90.347044,148.2455 c -2.375323,-2.41774 -5.768639,-5.98072 -7.380463,-10.13758 -1.611824,-4.15686 -1.442162,-8.90741 -0.169644,-11.96141 1.272517,-3.05399 3.64779,-4.41129 6.489726,-4.32644 2.841936,0.0848 6.150355,1.61181 8.65294,4.75067 2.502587,3.13886 4.199207,7.88941 4.962707,12.59769 0.76349,4.70827 0.59383,9.37399 -0.80593,11.70689 -1.39977,2.3329 -4.029542,2.3329 -6.02313,1.69664 -1.993588,-0.63626 -3.350883,-1.90872 -5.726206,-4.32646 z"
         id="path1-14"
         transform="matrix(0.52653265,0.85015491,0.85015491,-0.52653265,-98.968605,144.8384)" />
    </g>
    <g
       id="g6"
       transform="translate(2.6458334,-2.1166667)">
      <g
         id="g4"
         transform="matrix(1.2626877,0,0,1.2426272,-9.7518943,-24.143194)">
        <text
           xml:space="preserve"
           style="font-size:52.8092px;text-align:start;writing-mode:lr-tb;direction:ltr;text-anchor:start;fill:#006b55;fill-opacity:1;stroke:none;stroke-width:1.66328;stroke-dasharray:none;stroke-opacity:1"
           x="50.66581"
           y="134.00854"
           id="text2-2"
           transform="scale(1.0181753,0.98214914)"><tspan
             id="tspan2-7"
             style="font-style:normal;font-variant:normal;font-weight:normal;font-stretch:normal;font-size:52.8092px;font-family:Sans;-inkscape-font-specification:Sans;fill:#006b55;fill-opacity:1;stroke:none;stroke-width:1.66328;stroke-dasharray:none;stroke-opacity:1"
             x="50.66581"
             y="134.00854">QSP</tspan></text>
        <text
           xml:space="preserve"
           style="font-size:52.8092px;text-align:start;writing-mode:lr-tb;direction:ltr;text-anchor:start;fill:#00aa88;fill-opacity:1;stroke:none;stroke-width:1.66328;stroke-dasharray:none;stroke-opacity:1"
           x="51.68169"
           y="133.7691"
           id="text2"
           transform="scale(1.0181753,0.98214914)"><tspan
             id="tspan2"
             style="font-style:normal;font-variant:normal;font-weight:normal;font-stretch:normal;font-size:52.8092px;font-family:Sans;-inkscape-font-specification:Sans;fill:#00aa88;fill-opacity:1;stroke:none;stroke-width:1.66328;stroke-dasharray:none;stroke-opacity:1"
             x="51.68169"
             y="133.7691">QSP</tspan></text>
      </g>
      <g
         id="g5"
         transform="matrix(1.1738239,0,0,0.97981982,0.94554278,7.8824805)">
        <text
           xml:space="preserve"
           style="font-style:normal;font-variant:normal;font-weight:normal;font-stretch:normal;font-size:32.6561px;font-family:Sans;-inkscape-font-specification:Sans;text-align:start;writing-mode:lr-tb;direction:ltr;text-anchor:start;fill:#987900;fill-opacity:1;stroke:none;stroke-width:1.28567;stroke-linejoin:round;stroke-dasharray:none;stroke-opacity:1"
           x="141.89273"
           y="142.40889"
           id="text3-9"
           transform="scale(1.0468753,0.95522361)"><tspan
             id="tspan3-8"
             style="fill:#987900;fill-opacity:1;stroke-width:1.28567"
             x="141.89273"
             y="142.40889">y</tspan></text>
        <text
           xml:space="preserve"
           style="font-style:normal;font-variant:normal;font-weight:normal;font-stretch:normal;font-size:32.6561px;font-family:Sans;-inkscape-font-specification:Sans;text-align:start;writing-mode:lr-tb;direction:ltr;text-anchor:start;fill:#ffcc00;fill-opacity:1;stroke:none;stroke-width:1.28567;stroke-linejoin:round;stroke-dasharray:none;stroke-opacity:1"
           x="141.09845"
           y="142.53845"
           id="text3"
           transform="scale(1.0468753,0.95522361)"><tspan
             id="tspan3"
             style="fill:#ffcc00;fill-opacity:1;stroke-width:1.28567"
             x="141.09845"
             y="142.53845">y</tspan></text>
      </g>
    </g>
  </g>
</svg>
